<svg xmlns="http://www.w3.org/2000/svg" version="1.1" xmlns:xlink="http://www.w3.org/1999/xlink" xmlns:svgjs="http://svgjs.dev/svgjs" width="2000" height="364" viewBox="0 0 2000 364"><g transform="matrix(1,0,0,1,-1.0203055653495312,-0.1610699999999099)"><svg viewBox="0 0 329 60" data-background-color="#ffffff" preserveAspectRatio="xMidYMid meet" height="364" width="2000" xmlns="http://www.w3.org/2000/svg" xmlns:xlink="http://www.w3.org/1999/xlink"><g id="tight-bounds" transform="matrix(1,0,0,1,0.16784026549998998,0.026549999999986085)"><svg viewBox="0 0 328.664319469 59.9469" height="59.9469" width="328.664319469"><g><svg viewBox="0 0 328.664319469 59.9469" height="59.9469" width="328.664319469"><g><svg viewBox="0 0 328.664319469 59.9469" height="59.9469" width="328.664319469"><g id="textblocktransform"><svg viewBox="0 0 328.664319469 59.9469" height="59.9469" width="328.664319469" id="textblock"><g><svg viewBox="0 0 328.664319469 59.9469" height="59.9469" width="328.664319469"><g><svg><g></g><g></g></svg></g><g><svg><g><svg></svg></g><g></g></svg></g><g id="text-0"><svg viewBox="0 0 328.664319469 59.9469" height="59.9469" width="328.664319469"><g transform="matrix(1,0,0,1,0,11.448449999999998)"><svg width="186" viewBox="0.95 -36.35 185.99 37.050000000000004" height="37.050000000000004" data-palette-color="#6654da"><path d="M7.3-36L16.7-36 22.05-18.75 33.55-36 43-36 36.65 0 27.6 0 31.2-20.3 23.5-8.2 16.95-8.2 13.55-20.3 9.95 0 0.95 0 7.3-36ZM63.2-36.35L63.2-36.35Q75.25-36.35 75.25-26.5L75.25-26.5Q75.25-24.85 74.9-22.95L74.9-22.95 73.15-12.95Q71.95-6 67.95-2.65 63.95 0.7 56.7 0.7 49.45 0.7 46.6-2.65L46.6-2.65Q44.65-4.95 44.65-9L44.65-9Q44.65-10.8 45.05-12.95L45.05-12.95 46.8-22.95Q49.15-36.35 63.2-36.35ZM58.05-7.05L58.05-7.05Q60.55-7.05 62.05-8.35 63.55-9.65 64.15-13.15L64.15-13.15 65.85-22.75Q66-23.75 66-24.55L66-24.55Q66-28.6 61.9-28.6L61.9-28.6Q56.75-28.5 55.75-22.75L55.75-22.75 54.05-13.15Q53.85-11.9 53.85-10.55L53.85-10.55Q53.85-7.05 58.05-7.05ZM90.15-8.75L91.3-8.75 100.8-36 110.55-36 96.9 0 80.89 0 80.5-36 90.3-36 90.15-8.75ZM115.24-36L124.24-36 117.94 0 108.89 0 115.24-36ZM151.49-7.8L150.09 0 124.99 0 131.34-36 156.44-36 155.04-28.2 138.94-28.2 137.79-21.45 151.09-21.45 149.69-13.65 136.39-13.65 135.39-7.8 151.49-7.8ZM165.39-10.25L165.39-10.25Q165.39-6.8 170.36-6.8 175.34-6.8 175.34-9.9L175.34-9.9Q175.34-11.55 173.64-12.6 171.94-13.65 169.51-14.35 167.09-15.05 164.66-15.98 162.24-16.9 160.54-18.88 158.84-20.85 158.84-23.8L158.84-23.8Q158.84-36.35 174.99-36.35L174.99-36.35Q180.89-36.35 183.91-34.13 186.94-31.9 186.94-27.95L186.94-27.95Q186.94-26.5 186.56-25.18 186.19-23.85 185.79-23.3L185.79-23.3 185.39-22.7 176.54-22.7Q177.64-23.85 177.64-25.6L177.64-25.6Q177.64-28.85 173.39-28.85L173.39-28.85Q168.04-28.85 168.04-25.45L168.04-25.45Q168.04-23.75 169.74-22.75 171.44-21.75 173.86-21.18 176.29-20.6 178.74-19.75 181.19-18.9 182.89-16.93 184.59-14.95 184.59-11.8L184.59-11.8Q184.59-5.45 180.79-2.38 176.99 0.7 169.09 0.7 161.19 0.7 158.29-2.1L158.29-2.1Q156.14-4.2 156.14-7.9L156.14-7.9Q156.14-9.3 156.44-10.95L156.44-10.95 156.59-11.75 165.59-11.75 165.49-11.15Q165.39-10.65 165.39-10.25Z" opacity="1" transform="matrix(1,0,0,1,0,0)" fill="#6654da" class="undefined-av-0" data-fill-palette-color="primary"></path></svg></g><g><svg version="1.1" xmlns="http://www.w3.org/2000/svg" xmlns:xlink="http://www.w3.org/1999/xlink" x="200.1531" y="0" viewBox="0 0 80.001 100" enable-background="new 0 0 80.001 100" xml:space="preserve" width="47.958119469" height="59.9469" class="icon-g$-0" data-fill-palette-color="accent" id="g$-0"><path d="M64.001 40v2H64h-7v-8h-3.714C60.104 31.608 65 25.134 65 17.5 65 7.835 57.165 0 47.5 0c-6.378 0-11.941 3.423-15 8.52C29.441 3.423 23.878 0 17.5 0 7.835 0 0 7.835 0 17.5 0 25.134 4.896 31.608 11.714 34H8v11H2v6h6v11h20v2h-5v4h3.14l-22.6 32h4.908l22.588-32h3.104l-22.6 32h4.908l22.588-32H42v-4h-5v-2h20v-8h7 0.001v2h16V40H64.001zM23.286 34c3.882-1.361 7.129-4.046 9.214-7.52 2.085 3.474 5.332 6.158 9.214 7.52H23.286z" fill="#ffffff" data-fill-palette-color="accent"></path></svg></g><g transform="matrix(1,0,0,1,262.264319469,11.448449999999998)"><svg width="66.4" viewBox="1.85 -36.35 66.4 37.050000000000004" height="37.050000000000004" data-palette-color="#ffffff"><path d="M20.4-36.35L20.4-36.35Q32.45-36.35 32.45-26.5L32.45-26.5Q32.45-24.85 32.1-22.95L32.1-22.95 30.35-12.95Q29.15-6 25.15-2.65 21.15 0.7 13.9 0.7 6.65 0.7 3.8-2.65L3.8-2.65Q1.85-4.95 1.85-9L1.85-9Q1.85-10.8 2.25-12.95L2.25-12.95 4-22.95Q6.35-36.35 20.4-36.35ZM15.25-7.05L15.25-7.05Q17.75-7.05 19.25-8.35 20.75-9.65 21.35-13.15L21.35-13.15 23.05-22.75Q23.2-23.75 23.2-24.55L23.2-24.55Q23.2-28.6 19.1-28.6L19.1-28.6Q13.95-28.5 12.95-22.75L12.95-22.75 11.25-13.15Q11.05-11.9 11.05-10.55L11.05-10.55Q11.05-7.05 15.25-7.05ZM59.25-36L68.25-36 61.95 0 52.9 0 46.6-19.7 43.2 0 34.15 0 40.5-36 49.8-36 56-17.6 59.25-36Z" opacity="1" transform="matrix(1,0,0,1,0,0)" fill="#ffffff" class="undefined-av-1" data-fill-palette-color="secondary"></path></svg></g></svg></g></svg></g></svg></g></svg></g></svg></g><defs></defs></svg><rect width="328.664319469" height="59.9469" fill="none" stroke="none" visibility="hidden"></rect></g></svg></g></svg>